<?xml version="1.0" encoding="UTF-8"?>
<svg id="Layer_1" data-name="Layer 1" xmlns="http://www.w3.org/2000/svg" width="1024" height="1024" version="1.1" viewBox="0 0 1024 1024">
  <defs>
    <style>
      .cls-1 {
        fill: #999;
      }

      .cls-1, .cls-2 {
        stroke-width: 0px;
      }

      .cls-2 {
        fill: #fff;
      }
    </style>
  </defs>
  <path class="cls-1" d="M153.8,408.2c7.8,11.7,12.9,24.5,16.7,38,8.6,29.9,8.4,60.7,8.9,91.3.8,47,11.3,91.2,34.6,132.3,19.3,33.9,43.7,63,75.3,86,42.2,30.8,89.6,49,140.5,59.5,51.4,10.5,103.2,16.4,155.5,18,57.2,1.8,114.3-1.8,171.2-8.7,60.7-7.4,119.6-21.3,176.3-44,9.9-4,19.8-8.2,29.2-14.5-3.2-2-5.7-.8-8.1-.4-24,4.9-48.3,7.3-72.9,8.1-53.3,1.7-106.2-2.7-158.4-12.9-98-19.1-192.9-47.6-281.1-95.8-2.5-1.4-5.1-3.7-10-1.2,30,40.4,68.6,69.6,111.8,93,43.1,23.3,89.2,38.9,137.8,48-1.8,3.1-3.4,2.8-4.9,2.7-10.8-1-21.6-1.8-32.3-3.1-45.8-5.7-90.9-14.7-134.9-28.9-44.2-14.2-86.7-31.9-124.1-59.7-34.7-25.7-63.1-56.7-78.2-98.5-18-49.8-10.9-96.7,14-141.9,10-18.2,23.1-34.2,38.1-48.6,5.2-5,6.7-9.6,4.8-16.9-3.9-14.6-9.9-28.2-17.4-41.1-36.8-64.3-109.2-85-170.2-54.7-29,14.4-58.7,26.4-91.1,30.7-6.9.9-14.2.8-22.9,6,38.8,8.1,69.8,24.6,91.5,57.4M387.4,592.4c11.2,13.8,24.4,25.1,39.8,33.9,65.9,37.5,136.7,45.4,210.1,32.8,63.4-10.9,118.3-39.7,165-84.1,51.6-49,86.5-107.8,102.9-177.3.7-3.1,1.9-6.3-.2-9.6-3.4,2.1-4.9,5.1-6.7,7.9-25.5,42.2-58.8,77.6-96.8,108.4-65.7,53.3-139.5,88.3-224.2,98.3-36.5,4.3-73,4.4-108.9-5.3-2.7-.7-6.1-.5-7.8-3.7,1.5-1.8,3.1-1.3,4.6-1.2,29.7,2.2,59.4,1.9,88.4-4.9,88.6-20.7,164.1-63.7,224.7-132.4,63.3-71.6,98.8-155.3,110.5-249.6.6-4.9,2.2-10.4-.6-15.5-3.1,1.2-4.4,3.6-5.6,5.8-16.7,29.5-37,56.3-59.9,81.4-47.7,52.1-101.3,96.8-163.2,131.2-65,36.1-133.7,61.6-208.1,70.2-28.8,3.3-57.6,4-85.6-5.4-5.8-2-8.5-.6-9.7,5.5-8.9,42.8,2.8,79.9,31.4,113.5h-.1Z"/>
  <path class="cls-2" d="M240.9,352c7.2,7.3,9.5,15.7,5.8,22.6-3.8,7.1-10.2,10.8-18.3,10.6-7.3-.2-12.8-3.8-15.7-10.3-3.1-6.8-2.5-13.7,2.5-19.3,5.1-5.8,11.8-7.9,19.5-6.2,2,.4,3.8,1.6,6.1,2.8h0v-.2Z"/>
</svg>